<svg width="23" height="262" viewBox="0 0 23 262" fill="none" xmlns="http://www.w3.org/2000/svg">
<g clip-path="url(#clip0_352_1324)">
<rect width="23" height="262" fill="#010101"/>
<path d="M7.47607 15.3477C7.47607 15.0715 7.25222 14.8477 6.97607 14.8477C6.69993 14.8477 6.47607 15.0715 6.47607 15.3477H7.47607ZM6.97607 36.2774H6.47607V36.4845L6.62252 36.6309L6.97607 36.2774ZM21.971 51.9794C22.1662 52.1746 22.4828 52.1746 22.6781 51.9794C22.8733 51.7841 22.8733 51.4675 22.6781 51.2723L21.971 51.9794ZM6.47607 15.3477V36.2774H7.47607V15.3477H6.47607ZM6.62252 36.6309L21.971 51.9794L22.6781 51.2723L7.32963 35.9238L6.62252 36.6309Z" fill="#393939"/>
<path d="M7.47607 57.207C7.47607 56.9309 7.25222 56.707 6.97607 56.707C6.69993 56.707 6.47607 56.9309 6.47607 57.207H7.47607ZM6.97607 78.1367H6.47607V78.3438L6.62252 78.4903L6.97607 78.1367ZM21.971 93.8387C22.1662 94.034 22.4828 94.034 22.6781 93.8387C22.8733 93.6435 22.8733 93.3269 22.6781 93.1316L21.971 93.8387ZM6.47607 57.207V78.1367H7.47607V57.207H6.47607ZM6.62252 78.4903L21.971 93.8387L22.6781 93.1316L7.32963 77.7832L6.62252 78.4903Z" fill="#393939"/>
<path d="M7.47607 99.0703C7.47607 98.7942 7.25222 98.5703 6.97607 98.5703C6.69993 98.5703 6.47607 98.7942 6.47607 99.0703H7.47607ZM6.97607 120H6.47607V120.207L6.62252 120.354L6.97607 120ZM21.971 135.702C22.1662 135.897 22.4828 135.897 22.6781 135.702C22.8733 135.507 22.8733 135.19 22.6781 134.995L21.971 135.702ZM6.47607 99.0703V120H7.47607V99.0703H6.47607ZM6.62252 120.354L21.971 135.702L22.6781 134.995L7.32963 119.646L6.62252 120.354Z" fill="#393939"/>
<path d="M7.47607 140.93C7.47607 140.654 7.25222 140.43 6.97607 140.43C6.69993 140.43 6.47607 140.654 6.47607 140.93H7.47607ZM6.97607 161.859H6.47607V162.067L6.62252 162.213L6.97607 161.859ZM21.971 177.561C22.1662 177.757 22.4828 177.757 22.6781 177.561C22.8733 177.366 22.8733 177.05 22.6781 176.854L21.971 177.561ZM6.47607 140.93V161.859H7.47607V140.93H6.47607ZM6.62252 162.213L21.971 177.561L22.6781 176.854L7.32963 161.506L6.62252 162.213Z" fill="#393939"/>
<path d="M7.47607 225.258C7.47607 224.982 7.25222 224.758 6.97607 224.758C6.69993 224.758 6.47607 224.982 6.47607 225.258H7.47607ZM6.97607 246.188H6.47607V246.395L6.62252 246.541L6.97607 246.188ZM21.971 261.89C22.1662 262.085 22.4828 262.085 22.6781 261.89C22.8733 261.694 22.8733 261.378 22.6781 261.182L21.971 261.89ZM6.47607 225.258V246.188H7.47607V225.258H6.47607ZM6.62252 246.541L21.971 261.89L22.6781 261.182L7.32963 245.834L6.62252 246.541Z" fill="#393939"/>
<path d="M7.47607 182.785C7.47607 182.509 7.25222 182.285 6.97607 182.285C6.69993 182.285 6.47607 182.509 6.47607 182.785H7.47607ZM6.97607 203.715H6.47607V203.922L6.62252 204.068L6.97607 203.715ZM21.971 219.417C22.1662 219.612 22.4828 219.612 22.6781 219.417C22.8733 219.222 22.8733 218.905 22.6781 218.71L21.971 219.417ZM6.47607 182.785V203.715H7.47607V182.785H6.47607ZM6.62252 204.068L21.971 219.417L22.6781 218.71L7.32963 203.361L6.62252 204.068Z" fill="#393939"/>
<path d="M14.8486 78.8359C14.8486 79.1121 15.0725 79.3359 15.3486 79.3359C15.6248 79.3359 15.8486 79.1121 15.8486 78.8359L14.8486 78.8359ZM15.3486 57.9062L15.8486 57.9062L15.8486 57.6991L15.7022 57.5527L15.3486 57.9062ZM0.353728 42.2042C0.158466 42.009 -0.158117 42.009 -0.353379 42.2042C-0.548641 42.3995 -0.548641 42.7161 -0.353379 42.9113L0.353728 42.2042ZM15.8486 78.8359L15.8486 57.9062L14.8486 57.9062L14.8486 78.8359L15.8486 78.8359ZM15.7022 57.5527L0.353728 42.2042L-0.353379 42.9113L14.9951 58.2598L15.7022 57.5527Z" fill="#393939"/>
<path d="M14.8486 36.2773C14.8486 36.5535 15.0725 36.7773 15.3486 36.7773C15.6248 36.7773 15.8486 36.5535 15.8486 36.2773L14.8486 36.2773ZM15.3486 15.3476L15.8486 15.3476L15.8486 15.1405L15.7022 14.9941L15.3486 15.3476ZM0.353728 -0.354373C0.158466 -0.549636 -0.158117 -0.549635 -0.353379 -0.354373C-0.548641 -0.15911 -0.548641 0.157472 -0.353379 0.352735L0.353728 -0.354373ZM15.8486 36.2773L15.8486 15.3476L14.8486 15.3476L14.8486 36.2773L15.8486 36.2773ZM15.7022 14.9941L0.353728 -0.354373L-0.353379 0.352735L14.9951 15.7012L15.7022 14.9941Z" fill="#393939"/>
<path d="M14.8486 121.391C14.8486 121.667 15.0725 121.891 15.3486 121.891C15.6248 121.891 15.8486 121.667 15.8486 121.391L14.8486 121.391ZM15.3486 100.461L15.8486 100.461L15.8486 100.254L15.7022 100.107L15.3486 100.461ZM0.353728 84.7589C0.158466 84.5636 -0.158117 84.5636 -0.353379 84.7589C-0.548641 84.9542 -0.548641 85.2708 -0.353379 85.466L0.353728 84.7589ZM15.8486 121.391L15.8486 100.461L14.8486 100.461L14.8486 121.391L15.8486 121.391ZM15.7022 100.107L0.353728 84.7589L-0.353379 85.466L14.9951 100.814L15.7022 100.107Z" fill="#393939"/>
<path d="M14.8486 163.949C14.8486 164.225 15.0725 164.449 15.3486 164.449C15.6248 164.449 15.8486 164.225 15.8486 163.949L14.8486 163.949ZM15.3486 143.02L15.8486 143.02L15.8486 142.812L15.7022 142.666L15.3486 143.02ZM0.353728 127.318C0.158466 127.122 -0.158117 127.122 -0.353379 127.318C-0.548641 127.513 -0.548641 127.829 -0.353379 128.025L0.353728 127.318ZM15.8486 163.949L15.8486 143.02L14.8486 143.02L14.8486 163.949L15.8486 163.949ZM15.7022 142.666L0.353728 127.318L-0.353379 128.025L14.9951 143.373L15.7022 142.666Z" fill="#393939"/>
<path d="M14.8486 248.277C14.8486 248.553 15.0725 248.777 15.3486 248.777C15.6248 248.777 15.8486 248.553 15.8486 248.277L14.8486 248.277ZM15.3486 227.348L15.8486 227.348L15.8486 227.141L15.7022 226.994L15.3486 227.348ZM0.353728 211.646C0.158466 211.45 -0.158117 211.45 -0.353379 211.646C-0.548641 211.841 -0.548641 212.157 -0.353379 212.353L0.353728 211.646ZM15.8486 248.277L15.8486 227.348L14.8486 227.348L14.8486 248.277L15.8486 248.277ZM15.7022 226.994L0.353728 211.646L-0.353379 212.353L14.9951 227.701L15.7022 226.994Z" fill="#393939"/>
<path d="M14.8486 206.504C14.8486 206.78 15.0725 207.004 15.3486 207.004C15.6248 207.004 15.8486 206.78 15.8486 206.504L14.8486 206.504ZM15.3486 185.574L15.8486 185.574L15.8486 185.367L15.7022 185.221L15.3486 185.574ZM0.353728 169.872C0.158466 169.677 -0.158117 169.677 -0.353379 169.872C-0.548641 170.067 -0.548641 170.384 -0.353379 170.579L0.353728 169.872ZM15.8486 206.504L15.8486 185.574L14.8486 185.574L14.8486 206.504L15.8486 206.504ZM15.7022 185.221L0.353728 169.872L-0.353379 170.579L14.9951 185.928L15.7022 185.221Z" fill="#393939"/>
</g>
<defs>
<clipPath id="clip0_352_1324">
<rect width="23" height="262" fill="white"/>
</clipPath>
</defs>
</svg>
