<svg width="100" height="100" viewBox="0 0 100 100" fill="none" xmlns="http://www.w3.org/2000/svg">
<path d="M31.218 54V44.06H34.382C35.9407 44.06 37.1913 44.522 38.134 45.446C39.0767 46.3607 39.548 47.56 39.548 49.044C39.548 50.528 39.086 51.7273 38.162 52.642C37.2473 53.5473 36.0013 54 34.424 54H31.218ZM32.912 52.488H34.326C35.362 52.488 36.1973 52.166 36.832 51.522C37.476 50.8687 37.798 50.0427 37.798 49.044C37.798 48.036 37.4807 47.2053 36.846 46.552C36.2207 45.8987 35.4087 45.572 34.41 45.572H32.912V52.488ZM48.9606 54H46.9306L44.5506 50.458H43.2206V54H41.5266V44.06H45.1946C46.3333 44.06 47.1826 44.354 47.7426 44.942C48.3119 45.53 48.5966 46.3093 48.5966 47.28C48.5966 48.8667 47.8686 49.8653 46.4126 50.276V50.318L48.9606 54ZM43.2206 45.572V48.932H44.8306C45.4839 48.932 45.9833 48.7827 46.3286 48.484C46.6739 48.176 46.8466 47.7653 46.8466 47.252C46.8466 46.72 46.6786 46.3093 46.3426 46.02C46.0159 45.7213 45.5493 45.572 44.9426 45.572H43.2206ZM57.2091 54L56.4531 51.858H52.3931L51.6511 54H49.8871L53.5971 44.06H55.2491L58.9731 54H57.2091ZM52.9111 50.402H55.9491L54.4371 46.09H54.4091L52.9111 50.402ZM64.5613 54.084C63.096 54.084 61.892 53.6313 60.9493 52.726C60.016 51.8113 59.5493 50.584 59.5493 49.044C59.5493 47.5507 59.9973 46.328 60.8933 45.376C61.7986 44.424 63.0026 43.948 64.5053 43.948C65.224 43.948 65.924 44.088 66.6053 44.368C67.2866 44.6387 67.8793 45.0447 68.3833 45.586L67.1933 46.622C66.456 45.9033 65.5553 45.544 64.4913 45.544C63.5766 45.544 62.816 45.866 62.2093 46.51C61.612 47.1447 61.3133 47.9893 61.3133 49.044C61.3133 50.052 61.6073 50.8873 62.1953 51.55C62.7926 52.2127 63.5813 52.544 64.5613 52.544C65.3733 52.544 66.1106 52.3247 66.7733 51.886V50.206H64.3373V48.694H68.4533V52.838C67.996 53.2207 67.422 53.524 66.7313 53.748C66.0406 53.972 65.3173 54.084 64.5613 54.084Z" fill="#1A2BC2"/>
</svg>
