<svg width="24" height="24" viewBox="0 0 24 24" fill="none" xmlns="http://www.w3.org/2000/svg">
<path fill-rule="evenodd" clip-rule="evenodd" d="M8.5625 2H16.4375C20.0613 2 23 4.93851 23 8.5621V16.4366C23 20.0602 20.0613 22.9987 16.4375 22.9987H8.5625C4.93869 22.9987 2 20.0602 2 16.4366V8.5621C2 4.93851 4.93869 2 8.5625 2ZM16.4375 21.0302C18.9706 21.0302 21.0313 18.9697 21.0313 16.4367V8.56222C21.0313 6.02925 18.9706 3.96875 16.4375 3.96875H8.5625C6.02938 3.96875 3.96875 6.02925 3.96875 8.56222V16.4367C3.96875 18.9697 6.02938 21.0302 8.5625 21.0302H16.4375Z" fill="#1A2BC2"/>
<path fill-rule="evenodd" clip-rule="evenodd" d="M7.24902 12.4997C7.24902 9.60054 9.59971 7.25 12.499 7.25C15.3983 7.25 17.749 9.60054 17.749 12.4997C17.749 15.3988 15.3983 17.7494 12.499 17.7494C9.59971 17.7494 7.24902 15.3988 7.24902 12.4997ZM9.21875 12.4998C9.21875 14.3083 10.6914 15.7808 12.5 15.7808C14.3086 15.7808 15.7812 14.3083 15.7812 12.4998C15.7812 10.69 14.3086 9.21875 12.5 9.21875C10.6914 9.21875 9.21875 10.69 9.21875 12.4998Z" fill="#1A2BC2"/>
<ellipse cx="18.1439" cy="6.85577" rx="0.699562" ry="0.699519" fill="#1A2BC2"/>
</svg>
