<svg width="154" height="25" viewBox="0 0 154 25" fill="none" xmlns="http://www.w3.org/2000/svg">
<path d="M27.4389 20.5512V1.07037C27.4389 0.721336 30.0265 0.721336 30.0265 1.07037V18.9278C30.0265 19.2849 27.4389 20.8759 27.4389 20.5512ZM39.2071 21.2005C39.5615 21.2005 39.5615 23.5707 39.2071 23.5707H27.5807C27.1997 23.5707 27.1997 21.2005 27.5807 21.2005H39.2071Z" fill="#1A2BC2"/>
<path d="M54.8486 24.0356C52.6482 24.0053 50.551 23.1762 49.0177 21.7304C48.2661 21.0272 47.665 20.2012 47.2454 19.2953C46.738 18.1295 46.4967 16.8809 46.5364 15.6264V1.42974C46.5364 1.08071 49.1949 1.08071 49.1949 1.42974V15.5858C49.1949 18.7027 51.109 21.495 54.7865 21.6005C54.8103 21.601 54.8335 21.607 54.8541 21.6179C54.8747 21.6288 54.8919 21.6442 54.9043 21.6628C54.9166 21.6814 54.9236 21.7025 54.9248 21.7242C54.9259 21.746 54.921 21.7677 54.9106 21.7872C54.6305 22.5118 54.6087 23.299 54.8486 24.0356V24.0356ZM62.567 15.5858V1.42974C62.567 1.08071 65.2254 1.08071 65.2254 1.42974V15.5858C65.2652 16.8403 65.0239 18.0889 64.5165 19.2547C64.0969 20.1606 63.4958 20.9866 62.7442 21.6898C61.2909 23.021 59.9883 23.7028 57.1526 23.995C56.8513 23.995 56.5677 21.6573 57.2944 21.4869C60.9542 21.1622 62.567 18.7677 62.567 15.5858Z" fill="#1A2BC2"/>
<path d="M73.8024 14.8385C73.8039 14.8474 73.8032 14.8564 73.8001 14.8649C73.7971 14.8734 73.7919 14.8811 73.785 14.8875C73.7781 14.8938 73.7696 14.8986 73.7603 14.9013C73.7511 14.9041 73.7412 14.9048 73.7315 14.9034V22.3711C73.7315 22.6958 71.2148 22.6958 71.2148 22.3711V1.16945C71.2148 0.820414 73.7315 0.820414 73.7315 1.16945V11.2995L84.0818 0.520094C84.3388 0.284701 86.3061 1.85128 86.0668 2.1435L73.8024 14.8385ZM88.1936 21.5594C88.4506 21.7948 86.5276 23.4425 86.244 23.1828L77.2053 14.1567C76.9483 13.9213 77.6838 11.1371 77.9408 11.3807L88.1936 21.5594Z" fill="#1A2BC2"/>
<path d="M107.167 12.954C107.549 12.954 106.184 15.3241 105.829 15.3241H98.3325H98.0844L94.9297 22.8567C94.8322 23.0921 92.4396 22.2804 92.5548 21.9801L100.061 4.04958C100.202 3.74925 102.976 3.69243 102.834 3.99276L99.0858 12.9215L107.167 12.954ZM115.232 21.8827C115.373 22.1911 112.936 23.0921 112.821 22.8567L102.435 1.46025C102.294 1.15993 104.669 0.153424 104.81 0.453753L115.232 21.8827Z" fill="#1A2BC2"/>
<path d="M14.6167 12.954C14.9978 12.954 13.6331 15.3241 13.2786 15.3241H5.78175H5.53363L2.37892 22.8567C2.28144 23.0921 -0.111171 22.2804 0.00402913 21.9801L7.50977 4.04958C7.65155 3.74925 10.4252 3.69243 10.2834 3.99276L6.53499 12.9215L14.6167 12.954ZM22.6807 21.8827C22.8225 22.1911 20.3856 23.0921 20.2704 22.8567L9.88466 1.46025C9.74287 1.15993 12.1178 0.153424 12.2595 0.453753L22.6807 21.8827Z" fill="#1A2BC2"/>
<path d="M126.999 10.0164L131.9 2.37015H120.273C119.892 2.37015 119.892 0 120.273 0H134.275C134.815 0 135.701 1.46108 135.444 1.8507L128.621 12.4028C128.612 12.422 128.597 12.4385 128.579 12.45C128.56 12.4616 128.537 12.4677 128.515 12.4677C128.492 12.4677 128.47 12.4616 128.451 12.45C128.432 12.4385 128.417 12.422 128.408 12.4028C128.036 11.5621 127.564 10.7618 126.999 10.0164V10.0164ZM134.275 21.2016C134.673 21.2016 134.673 23.5718 134.275 23.5718H120.982C120.46 23.5718 119.538 22.1189 119.777 21.6887L125.918 11.9483C126.104 11.6479 127.531 14.3265 127.345 14.6269L123.322 21.2341L134.275 21.2016Z" fill="#1A2BC2"/>
<path d="M153.734 0.164062C154.089 0.164062 154.089 2.66411 153.734 2.66411H141.107C140.752 2.66411 140.752 0.164062 141.107 0.164062H153.734ZM153.734 21.1384C154.089 21.1384 154.089 23.5735 153.734 23.5735H142.755C142.356 23.5735 140.983 22.2667 140.983 22.0232V3.60566C140.983 3.25663 143.57 4.53101 143.57 4.88004V21.114L153.734 21.1384ZM144.412 13.3461C144.058 13.3461 145.112 10.911 145.467 10.911H151.138C151.537 10.911 151.537 13.3461 151.138 13.3461H144.412Z" fill="#1A2BC2"/>
</svg>
