<svg width="1440" height="325" viewBox="0 0 1440 325" fill="none" xmlns="http://www.w3.org/2000/svg">
<g id="logoazul">
<g id="Group">
<path id="Vector" d="M381.285 140.581L388.565 124.241C397.615 131.521 412.005 136.691 425.925 136.691C443.545 136.691 450.985 130.381 450.985 121.971C450.985 97.5513 383.715 113.561 383.715 71.5113C383.715 53.2413 398.265 37.7113 429.315 37.7113C442.905 37.7113 457.135 41.2713 466.995 47.7413L460.365 64.0713C450.175 58.0913 439.015 55.1813 429.145 55.1813C411.685 55.1813 404.565 61.9713 404.565 70.5413C404.565 94.6413 471.685 78.9513 471.685 120.511C471.685 138.621 456.965 154.151 425.925 154.151C408.295 154.151 390.665 148.651 381.295 140.571L381.285 140.581Z" fill="#1A2BC2"/>
<path id="Vector_2" d="M565.965 126.351H509.365L498.205 152.551H476.535L527.475 39.3413H548.175L599.275 152.551H577.285L565.965 126.351ZM519.555 29.1613H508.715C509.045 15.9013 515.835 7.49126 526.185 7.49126C536.535 7.49126 542.355 18.1713 548.175 18.1713C552.705 18.1713 555.775 14.7713 556.105 8.95126H566.935C566.605 21.5613 559.825 30.1413 549.465 30.1413C539.105 30.1413 533.295 19.4713 527.475 19.4713C522.945 19.4713 519.875 23.0313 519.555 29.1713V29.1613ZM559.015 109.851L537.675 60.3613L516.485 109.851H559.015Z" fill="#1A2BC2"/>
<path id="Vector_3" d="M603.975 95.9513C603.975 62.4713 629.855 37.7313 664.945 37.7313C700.035 37.7313 725.915 62.3113 725.915 95.9513C725.915 129.591 700.035 154.171 664.945 154.171C629.855 154.171 603.975 129.431 603.975 95.9513ZM704.725 95.9513C704.725 72.8213 687.745 56.1613 664.945 56.1613C642.145 56.1613 625.165 72.8213 625.165 95.9513C625.165 119.081 642.145 135.741 664.945 135.741C687.745 135.741 704.725 119.081 704.725 95.9513Z" fill="#1A2BC2"/>
<path id="Vector_4" d="M896.845 152.551L896.685 77.5113L859.495 139.611H850.115L812.915 78.4813V152.551H792.865V39.3413H810.175L855.135 114.381L899.285 39.3413H916.595L916.755 152.551H896.865H896.845Z" fill="#1A2BC2"/>
<path id="Vector_5" d="M947.295 39.3413H968.315V152.551H947.295V39.3413Z" fill="#1A2BC2"/>
<path id="Vector_6" d="M1076.19 94.6513H1096.08V139.771C1084.28 149.311 1067.78 154.161 1051.77 154.161C1016.68 154.161 990.795 129.741 990.795 95.9413C990.795 62.1413 1016.68 37.7213 1052.1 37.7213C1071.03 37.7213 1086.87 44.0313 1097.55 56.1513L1084.29 69.0913C1075.39 60.2013 1065.2 56.1513 1053.07 56.1513C1028.97 56.1513 1011.99 72.4813 1011.99 95.9413C1011.99 119.401 1028.97 135.731 1052.9 135.731C1060.99 135.731 1068.91 134.111 1076.19 129.911V94.6513Z" fill="#1A2BC2"/>
<path id="Vector_7" d="M1122.76 103.221V39.3413H1143.78V102.411C1143.78 125.701 1154.3 135.731 1172.57 135.731C1190.84 135.731 1201.19 125.701 1201.19 102.411V39.3413H1221.89V103.221C1221.89 136.211 1203.29 154.161 1172.41 154.161C1141.53 154.161 1122.76 136.211 1122.76 103.221Z" fill="#1A2BC2"/>
<path id="Vector_8" d="M1336.23 134.921V152.551H1251.32V39.3413H1333.96V56.9713H1272.35V86.4013H1327.01V103.701H1272.35V134.911H1336.23V134.921Z" fill="#1A2BC2"/>
<path id="Vector_9" d="M1359.68 39.3413H1380.7V134.761H1439.89V152.551H1359.68V39.3413Z" fill="#1A2BC2"/>
</g>
<g id="Group_2">
<path id="Vector_10" d="M405.715 269.301H459.775V289.041H384.055V180.161H459.775V199.911H405.715V226.551H449.035V245.721H405.715V269.301Z" fill="#1A2BC2"/>
<path id="Vector_11" d="M555.815 289.041V251.281L505.405 218.501V289.041H483.745V177.281L555.815 225.781V180.161H577.475V289.041H555.815Z" fill="#1A2BC2"/>
<path id="Vector_12" d="M683.685 282.141C675.255 287.121 665.475 290.001 655.125 290.001C624.455 290.001 599.535 265.081 599.535 234.411C599.535 203.741 624.455 178.821 655.125 178.821C670.465 178.821 685.795 185.531 696.335 196.651L682.155 210.071C675.255 203.741 664.905 198.951 654.935 198.951C634.995 198.951 621.195 215.051 621.195 234.991C621.195 254.931 634.995 270.841 654.935 270.841C663.945 270.841 671.805 267.971 678.125 262.791V249.371H656.275V230.011H699.785V289.051H689.245L683.685 282.151V282.141Z" fill="#1A2BC2"/>
<path id="Vector_13" d="M747.335 269.301H801.395V289.041H725.675V180.161H801.395V199.911H747.335V226.551H790.655V245.721H747.335V269.301Z" fill="#1A2BC2"/>
<path id="Vector_14" d="M897.435 289.041V251.281L847.025 218.501V289.041H825.365V177.281L897.435 225.781V180.161H919.095V289.041H897.435Z" fill="#1A2BC2"/>
<path id="Vector_15" d="M1010.16 245.721H967.595V289.041H945.935V180.161H967.595V226.551H1010.16V180.161H1031.82V289.041H1010.16V245.721Z" fill="#1A2BC2"/>
<path id="Vector_16" d="M1124.41 267.191H1082.81L1071.88 289.041H1047.92L1103.7 177.281L1159.29 289.041H1135.33L1124.4 267.191H1124.41ZM1115.02 247.831L1103.71 224.831L1092.21 247.831H1115.02Z" fill="#1A2BC2"/>
<path id="Vector_17" d="M1215.28 249.171H1197.07V289.041H1175.41V180.161H1226.78C1244.8 180.161 1259.37 194.541 1259.37 214.661C1259.37 229.611 1251.13 241.501 1239.43 246.671L1261.09 289.031H1235.6L1215.28 249.161V249.171ZM1237.71 214.861C1237.71 206.041 1232.15 200.101 1225.25 200.101H1197.07V229.241H1225.25C1232.15 229.241 1237.71 223.681 1237.71 214.861Z" fill="#1A2BC2"/>
<path id="Vector_18" d="M1281.04 180.161H1302.7V289.041H1281.04V180.161Z" fill="#1A2BC2"/>
<path id="Vector_19" d="M1395.28 267.191H1353.68L1342.75 289.041H1318.79L1374.57 177.281L1430.16 289.041H1406.2L1395.27 267.191H1395.28ZM1385.89 247.831L1374.58 224.831L1363.08 247.831H1385.89Z" fill="#1A2BC2"/>
</g>
<g id="Group_3">
<path id="Vector_20" fill-rule="evenodd" clip-rule="evenodd" d="M82.2851 242.581L82.2651 242.601C76.6951 237.041 71.6751 230.831 67.3051 224.081L61.5051 227.851C48.5851 207.911 42.1151 185.141 42.1151 162.411C42.1151 139.681 48.5751 116.911 61.5051 96.9713L67.3051 100.741C71.6851 93.9913 76.6951 87.7813 82.2651 82.2113L82.2851 82.2313C87.9651 76.5613 94.2151 71.4913 100.955 67.1413L101.235 66.9613L97.4951 61.1313C117.355 48.3913 140.045 42.0513 162.725 42.1013C185.415 42.1513 208.085 48.6013 227.905 61.4413L224.135 67.2413C230.885 71.6213 237.095 76.6413 242.665 82.2113V82.2513C248.275 87.8613 253.295 94.0513 257.625 100.741L263.425 96.9713C276.345 116.911 282.805 139.681 282.805 162.411C282.805 185.141 276.345 207.911 263.425 227.851L257.625 224.081C253.295 230.761 248.275 236.961 242.665 242.571V242.611C237.095 248.181 230.895 253.201 224.135 257.581L227.905 263.381C207.975 276.301 185.205 282.761 162.465 282.761C139.725 282.761 116.965 276.301 97.0251 263.381L100.795 257.581C94.1151 253.251 87.9151 248.221 82.2951 242.601L82.2851 242.581ZM209.285 252.421L176.955 204.891C172.175 205.991 167.315 206.541 162.465 206.541C157.615 206.541 152.755 205.991 147.975 204.891L115.645 252.421C130.285 260.031 146.365 263.841 162.465 263.841C178.565 263.841 194.645 260.031 209.285 252.421ZM180.885 193.931L188.675 188.651L193.955 180.861L185.045 177.721C186.775 172.811 187.645 167.641 187.645 162.441C187.645 157.241 186.775 152.071 185.045 147.161L193.955 144.021L188.675 136.231L180.885 130.951L177.745 139.861C172.835 138.131 167.665 137.261 162.465 137.261C157.265 137.261 152.095 138.131 147.185 139.861L144.045 130.951L136.225 136.191L136.265 136.221L130.975 144.021L139.885 147.161C138.155 152.071 137.285 157.251 137.285 162.451C137.285 167.651 138.155 172.821 139.885 177.731L130.975 180.871L136.255 188.661L144.045 193.941L147.185 185.031C152.095 186.761 157.265 187.631 162.465 187.631C167.665 187.631 172.835 186.771 177.745 185.031L180.885 193.941V193.931ZM72.4751 209.251L120.005 176.921C118.905 172.141 118.355 167.281 118.355 162.431C118.355 157.581 118.905 152.721 120.005 147.941L72.4751 115.611C64.8651 130.251 61.0551 146.331 61.0551 162.431C61.0551 178.531 64.8651 194.611 72.4751 209.251ZM104.815 234.821L136.195 188.701L90.4151 219.841L104.815 234.821ZM221.215 236.441C224.025 234.201 226.715 231.801 229.275 229.231L229.295 229.251C231.835 226.701 234.245 224.011 236.485 221.181L188.735 188.701L221.215 236.441ZM204.925 176.921L252.445 209.251C260.065 194.611 263.865 178.531 263.865 162.431C263.865 146.331 260.055 130.251 252.445 115.611L204.915 147.941C206.015 152.721 206.565 157.591 206.565 162.431C206.565 167.271 206.015 172.141 204.915 176.921H204.925ZM236.485 103.681C234.245 100.851 231.835 98.1513 229.295 95.6113L229.275 95.6313C226.715 93.0713 224.025 90.6613 221.215 88.4313L188.735 136.171L236.485 103.691V103.681ZM116.055 72.2413L148.035 119.961C152.795 118.871 157.635 118.321 162.465 118.321C167.295 118.321 172.175 118.871 176.955 119.971L209.285 72.4413C194.695 64.8413 178.705 61.0213 162.725 60.9813C146.725 60.9413 130.695 64.7013 116.055 72.2413ZM104.015 88.1713C101.075 90.4813 98.2851 92.9613 95.6551 95.5913V95.6313C93.0951 98.1913 90.6951 100.881 88.4551 103.691L136.175 136.151L104.015 88.1713Z" fill="#1A2BC2"/>
<path id="Vector_21" fill-rule="evenodd" clip-rule="evenodd" d="M185.195 313.581L178.305 314.181L175.025 324.261C165.635 325.081 158.855 325.041 149.465 324.221L147.185 314.231L139.725 313.581L124.445 310.441L117.765 308.291L110.955 316.311C102.035 313.421 96.1551 310.941 87.8751 306.541L88.9351 296.111L82.5951 292.771L71.6251 285.331L66.1351 280.741L56.9151 285.721C49.6251 279.601 45.0451 275.011 38.9251 267.721L44.1851 258.791L39.5051 253.191L30.8751 240.181L27.6551 233.891L17.2551 234.921C12.9251 226.441 10.4251 220.201 7.64509 211.101L15.9451 205.021L13.8151 198.101L11.2651 185.101L10.6751 178.221L0.605091 175.031C-0.214909 165.631 -0.194909 158.971 0.625091 149.561L10.6551 146.861L11.2751 139.641L14.4151 124.361L16.5751 117.621L8.54509 110.841C11.4351 101.921 13.9551 96.0013 18.3451 87.7113L28.8151 88.6913L32.0651 82.5113L39.5051 71.5413L44.3051 65.8113L38.7251 57.2913C44.4251 50.4913 50.4851 44.3913 57.3051 38.6813L66.1551 44.0013L71.6251 39.4213L84.6351 30.7913L91.0551 27.5113L89.1651 17.5513C97.6351 13.2213 106.705 9.71126 115.805 6.92126L120.295 15.7113L126.715 13.7413L139.715 11.2013L146.955 10.5813L148.375 0.611256C157.765 -0.198744 166.635 -0.208744 176.025 0.611256L178.485 10.6213L185.185 11.2013L200.455 14.3413L206.845 16.3913L213.945 8.46126C222.865 11.3513 228.635 13.7913 236.925 18.1813L236.475 28.5013L242.305 31.9813L253.275 39.4213L257.965 43.3513L268.335 39.3413C275.395 45.2613 279.845 49.7313 285.775 56.8013L281.115 66.4413L285.395 71.5513L294.025 84.5713L297.265 90.9113L307.605 89.7713C311.935 98.2413 314.315 104.111 317.105 113.201L309.085 120.181L311.075 126.651L313.615 139.651L314.215 146.661L324.275 149.671C325.095 159.051 325.095 165.631 324.275 175.021L314.225 178.071L313.615 185.121L310.475 200.391L308.385 206.901L316.345 213.901C313.465 222.811 310.905 228.831 306.505 237.111L296.095 236.011L292.815 242.241L285.375 253.211L281.125 258.291L285.775 267.921C279.695 275.161 275.055 279.811 267.815 285.881L258.845 280.671L253.245 285.351L240.235 293.981L233.895 297.221L235.005 307.581C226.525 311.911 220.335 314.391 211.225 317.191L205.265 308.851L198.145 311.041L185.145 313.581H185.195ZM177.845 290.721C191.105 289.561 199.875 286.821 211.955 281.821C224.015 276.821 232.205 272.531 242.395 263.981L251.625 268.661L258.875 262.591L262.655 258.811L268.725 251.561L265.385 240.601C273.935 230.411 276.895 223.961 281.885 211.901C286.885 199.831 289.525 191.911 290.685 178.651L300.655 174.501L301.225 167.931L301.275 157.401L300.665 150.321L290.845 147.411C289.685 134.141 286.895 124.981 281.895 112.911C276.895 100.841 272.405 92.4113 263.855 82.2213L268.735 73.2313L262.665 65.9813L258.885 62.2113L251.635 56.1413L243.155 61.4213C232.965 52.8713 224.035 47.9813 211.965 42.9813C199.895 37.9813 190.895 35.2113 177.625 34.0513L174.565 24.2113L167.105 23.5713L157.985 23.5513L150.385 24.2113L147.055 34.0713C133.785 35.2313 125.045 37.9713 112.975 42.9713C100.905 47.9613 92.4951 52.4513 82.3051 61.0013L73.3051 56.1313L66.0551 62.2013L62.2751 65.9713L56.2051 73.2213L61.0051 82.3013C52.4551 92.4913 48.0451 100.831 43.0451 112.891C38.0451 124.961 35.3151 133.661 34.1551 146.921L24.2851 150.291L23.6751 157.291V167.621L24.2851 174.471L34.0851 177.261C35.2451 190.521 38.0451 199.801 43.0451 211.871C48.0451 223.941 52.1651 231.901 60.7151 242.091L56.2051 251.541L62.2751 258.791L66.0551 262.571L73.3051 268.641L82.4651 263.891C92.6551 272.441 100.905 276.801 112.985 281.791C125.055 286.791 134.275 289.581 147.535 290.751L150.385 300.561L157.185 301.151L167.545 301.171L174.565 300.561L177.865 290.701L177.845 290.721Z" fill="#1A2BC2"/>
</g>
</g>
</svg>
