<svg width="228" height="157" viewBox="0 0 228 157" fill="none" xmlns="http://www.w3.org/2000/svg">
<g id="RODRIGO SELESTRIM">
<g id="RODRIGO">
<path id="Vector" d="M12.752 90.0194C10.4692 81.4999 29.3062 34.5756 54.9322 27.7092C60.0613 26.3348 62.6194 27.575 63.3079 30.1444C65.2387 37.3502 52.6199 55.3598 40.5652 58.5899C39.8697 58.7762 39.1658 58.8924 38.4522 59.0111C38.0368 59.1224 37.7748 59.2651 37.868 59.6128C42.6035 68.4379 52.6053 82.4672 65.2783 79.0715C68.9488 78.088 68.8796 77.2887 69.4398 77.1386C69.7199 77.0635 70.1971 77.4533 70.2721 77.7334C70.4015 78.2164 68.6464 79.4321 66.3571 80.0455C46.6631 85.25 35.7502 60.3252 35.3439 58.8087C35.2145 58.3257 35.2747 58.0094 35.6224 57.9162C35.8252 57.8618 36.2092 57.9039 36.6815 58.0051C36.9978 58.0653 38.4616 58.2735 40.6736 57.6808C53.1437 54.3395 61.8506 37.5333 60.0855 30.9457C59.529 28.8689 57.9103 27.8119 55.0028 28.5909C30.5623 35.1294 12.2041 83.2609 13.9123 89.636C14.0599 90.1866 14.3378 90.4123 14.8304 90.2803C19.1964 89.1105 28.191 58.1164 29.0403 54.0997C29.1234 53.5598 29.4046 53.2567 29.6847 53.1817C30.3801 52.9953 30.5904 53.2392 30.6629 53.5097C31.4989 56.6296 21.1454 89.4682 14.5578 91.2334C13.5918 91.4922 13.029 91.0529 12.7494 90.0097L12.752 90.0194Z" fill="white"/>
<path id="Vector_2" d="M80.3098 66.2026C78.7895 68.8358 76.3825 70.6713 73.958 71.3209C72.1614 71.8023 70.304 71.5546 68.8509 70.536C68.117 73.6314 65.8641 77.1235 62.8118 77.9414C61.4981 78.2934 60.5305 77.7348 60.1967 76.4887C59.6764 74.5472 60.7144 70.9252 64.8939 66.3164C65.2779 66.3584 65.6693 66.6987 65.7625 67.0465C65.7987 67.1817 65.7699 67.3447 65.6613 67.5188C64.3891 68.605 61.0402 72.9912 61.8555 76.0339C62.0418 76.7294 62.3763 76.8572 63.0621 76.6734C65.2741 76.0807 67.5761 72.1924 67.6171 69.293C67.1144 68.5374 66.6709 67.6934 66.3551 66.515C66.2801 66.2349 66.2678 65.648 66.6831 65.5368C67.5814 65.296 68.7039 66.7035 68.9265 67.5342C69.0197 67.8819 69.0271 68.1801 69.0501 68.5363C70.1231 70.0295 72.0071 70.415 74.0162 69.8767C76.0254 69.3383 78.2091 67.7904 79.4046 65.6065L80.3046 66.1833L80.3098 66.2026Z" fill="white"/>
<path id="Vector_3" d="M103.316 59.2201L104.216 59.7968C102.976 62.355 97.312 68.107 93.0812 69.2406C90.1738 70.0197 88.9235 68.9467 88.4783 67.2853C88.1807 66.1745 88.244 64.7495 88.3436 63.4598C88.3676 63.0082 82.8764 72.4202 79.4764 73.3312C78.5105 73.59 77.8496 73.0942 77.5908 72.1282C76.8661 69.4236 79.1442 63.2435 86.0788 59.7599C86.359 59.6849 86.86 59.6231 87.0464 60.3185C87.1396 60.6663 86.9345 61.0214 86.2077 61.3611C81.9423 63.177 78.325 69.3433 78.8245 71.2075C78.9539 71.6905 79.3091 71.8956 79.9949 71.7118C81.7915 71.2304 86.4068 66.2771 90.4011 55.4131C92.6297 49.3187 95.7959 39.2667 100.062 26.0937C100.975 23.3955 101.65 22.3241 102.133 22.1947C102.413 22.1197 102.709 22.413 102.784 22.6932C102.914 23.1761 102.807 24.1676 102.162 26.2039C99.935 33.1158 95.0279 46.678 91.7119 56.4802C90.8173 59.246 89.1735 63.6205 89.805 65.9774C90.1958 67.4359 91.353 68.1611 93.9223 67.4727C97.3127 66.5642 101.624 62.1376 103.302 59.2446L103.316 59.2201Z" fill="white"/>
<path id="Vector_4" d="M103.307 59.2227C104.53 57.4144 105.562 55.4298 105.779 54.0362C106.089 52.9904 106.647 52.0228 107.442 51.665C107.789 51.5718 107.961 51.6708 108 51.8157C108.129 52.2987 106.882 53.7508 107.141 54.7167C107.4 55.6827 107.984 56.1992 109.699 55.9569C110.071 55.4121 110.429 55.0883 110.777 54.9952C111.125 54.902 111.439 55.263 111.514 55.5431C111.737 56.3738 108.386 59.9426 109.093 62.5795C109.279 63.275 110.257 63.603 111.02 63.3985C113.377 62.767 116.291 60.3505 118.21 58.3558C119.496 57.0486 120.647 55.5496 121.314 54.408L122.214 54.9847C120.974 57.5428 115.31 63.2949 111.079 64.4285C109.418 64.8736 107.687 64.5195 107.224 62.7905C106.944 61.7473 107.673 59.4816 108.673 57.6503C107.352 57.7041 106.509 57.3398 106.119 56.6987C105.433 58.0008 104.532 59.3501 103.729 60.5279C103.503 60.8058 103.254 60.9555 103.041 61.0125C102.558 61.1419 102.135 60.9549 102.135 60.9549C102.575 60.3921 102.879 59.8654 103.309 59.2323L103.307 59.2227Z" fill="white"/>
<path id="Vector_5" d="M133.665 51.1608L134.565 51.7375C133.324 54.2957 127.66 60.0477 123.429 61.1813C121.903 61.5903 121.13 60.9071 120.814 59.7287C120.017 56.7536 122.246 50.6591 123.212 50.4003C123.424 50.3434 123.578 50.3748 123.77 50.551C123.874 50.6681 123.998 50.8625 124.034 50.9978C124.221 51.6932 121.975 56.6018 122.513 58.6109C122.699 59.3064 123.244 59.6781 124.287 59.3986C127.678 58.4901 131.989 54.0634 133.667 51.1705L133.665 51.1608ZM127.899 38.2221C128.247 38.1289 128.457 38.3728 128.551 38.7205C128.737 39.416 128.173 40.9027 127.409 41.1072C127.062 41.2004 126.688 40.9277 126.595 40.58C126.409 39.8845 127.059 38.4472 127.89 38.2247L127.899 38.2221Z" fill="white"/>
<path id="Vector_6" d="M138.133 62.5834C134.742 74.849 129.94 91.5822 123.912 93.1973C122.116 93.6787 121.198 93.0343 120.882 91.8559C119.324 86.041 125.82 75.0865 137.116 62.1106C138.446 57.3751 139.24 53.9633 139.24 53.9633C139.186 53.7604 138.973 53.8174 138.973 53.8174C138.017 54.9638 135.337 57.9804 133.463 58.4825C132.564 58.7232 131.875 58.3904 131.541 57.1443C130.521 53.3386 138.058 45.1488 139.855 44.6674C140.27 44.5561 141.163 44.8346 141.292 45.3175C141.328 45.4528 140.952 45.7089 140.505 45.9736C136.504 48.2361 132.666 54.3892 133.036 55.7705C133.184 56.3211 133.711 56.6251 134.541 56.4025C136.686 55.828 139.957 50.5722 140.864 48.3933C141.269 47.3943 141.609 47.0029 141.947 46.9123C142.227 46.8373 142.632 46.9566 142.723 47.2947C142.78 47.5072 142.784 47.7958 142.774 48.0264C142.682 48.4961 141.879 50.7922 141.611 51.454C140.86 53.3636 139.903 56.4361 138.797 60.0762C141.672 56.9351 144.797 53.6442 148.134 50.2964C149.419 48.9892 150.571 47.4901 151.238 46.3485L152.138 46.9253C151.696 47.789 150.709 49.0888 149.501 50.3753C145.413 54.5144 141.605 58.5784 138.135 62.5519L138.133 62.5834ZM136.348 64.7699C127.025 75.954 121.153 85.9132 122.491 90.9071C122.714 91.7378 123.375 92.0056 124.554 91.6898C128.36 90.6701 133.291 75.5381 136.348 64.7699Z" fill="white"/>
<path id="Vector_7" d="M169.668 42.2593C168.147 44.8925 165.74 46.728 163.316 47.3776C161.519 47.859 159.662 47.6113 158.209 46.5927C157.475 49.6881 155.222 53.1802 152.17 53.9981C150.856 54.3501 149.888 53.7914 149.554 52.5454C149.034 50.6039 150.072 46.9818 154.252 42.373C154.636 42.4151 155.027 42.7554 155.12 43.1031C155.156 43.2383 155.128 43.4014 155.019 43.5754C153.747 44.6617 150.398 49.0479 151.213 52.0906C151.4 52.786 151.734 52.9138 152.42 52.7301C154.632 52.1374 156.934 48.2491 156.975 45.3497C156.472 44.594 156.029 43.7501 155.713 42.5716C155.638 42.2915 155.626 41.7047 156.041 41.5934C156.939 41.3527 158.062 42.7601 158.284 43.5908C158.377 43.9386 158.385 44.2368 158.408 44.593C159.481 46.0861 161.365 46.4717 163.374 45.9333C165.383 45.395 167.567 43.847 168.762 41.6632L169.662 42.2399L169.668 42.2593Z" fill="white"/>
</g>
<g id="SELESTRIM">
<path id="Vector_8" d="M71.3869 133.297L69.8608 133.706C66.4346 138.113 60.7428 141.791 51.5954 144.242C47.7124 145.283 44.4339 145.488 41.6915 145.26C37.8654 149.257 34.5149 152.826 31.6788 156.112C31.6293 156.197 31.2709 156.521 31.2033 156.539C30.9908 156.596 30.8374 156.565 30.7805 156.352C30.7442 156.217 30.8225 155.968 31.0771 155.527C32.5915 153.413 35.9734 149.691 40.316 145.111C35.884 144.373 33.3808 142.218 32.8605 140.276C32.5267 139.03 33.3654 137.988 35.5098 137.413C37.1711 136.968 42.3853 136.761 48.9203 136.19C56.6496 128.177 65.6728 118.926 73.5842 110.201C73.5651 108.198 73.4628 106.155 73.3579 104.102C72.8564 90.8711 84.3995 81.0177 90.8422 79.2914C92.9866 78.7168 94.6315 79.0215 95.0197 80.4704C96.394 85.5994 87.3356 97.2302 75.276 110.411C75.3585 118.484 75.0566 126.206 70.7933 132.473C75.5071 131.21 79.4816 129.699 82.0435 125.969C82.093 125.883 82.1606 125.865 82.2282 125.847C82.5759 125.754 82.7804 126.517 82.8166 126.652C79.824 131.016 76.0858 132.017 71.3721 133.28L71.3869 133.297ZM47.5879 137.593C42.1686 138.155 38.3432 138.289 37.0971 138.623C35.7158 138.993 35.0954 139.46 35.2611 140.078C35.67 141.604 37.3735 143.519 41.1729 144.136L47.5879 137.593ZM42.5787 144.36C44.9951 144.53 48.1273 144.281 52.078 143.223C59.3514 141.274 64.22 138.116 67.4955 134.267C60.583 135.902 54.4369 136.803 49.4016 137.407L42.5787 144.36ZM68.3064 133.16C72.6629 127.24 73.5564 119.795 73.5383 112.232C66.3511 120.028 58.3103 128.27 50.7366 136.014C56.3092 135.484 62.6087 134.614 68.3064 133.16ZM75.2439 108.359C86.2933 96.1222 94.7543 85.3141 93.6776 81.2959C93.38 80.185 92.1892 79.914 90.5955 80.341C85.3312 81.7516 75.3947 90.6464 75.2007 101.32C75.1656 103.701 75.2103 106.07 75.2343 108.362L75.2439 108.359Z" fill="white"/>
<path id="Vector_9" d="M95.3288 122.347L96.2287 122.924C94.9885 125.482 89.2486 132.072 85.0275 133.203C83.5013 133.612 81.4747 132.965 80.9545 131.023C79.8778 127.005 84.5377 121.677 87.1747 120.971C88.1406 120.712 88.6358 121.169 88.8041 121.797C89.2492 123.459 85.9062 127.326 82.6883 130.269C83.004 131.447 83.7772 132.13 85.5159 131.665C88.6358 130.829 93.6722 125.245 95.341 122.354L95.3288 122.347ZM82.5838 129.106C85.6558 126.43 87.5601 123.839 87.2624 122.728C87.1874 122.448 86.9386 122.37 86.6006 122.46C84.4562 123.035 82.6478 126.563 82.5935 129.104L82.5838 129.106Z" fill="white"/>
<path id="Vector_10" d="M113.334 117.523L114.234 118.1C112.993 120.658 107.253 127.248 103.032 128.379C98.8113 129.51 96.3735 127.637 95.3718 123.899C92.0874 111.641 104.148 80.1883 114.541 77.4034C115.922 77.0333 116.718 77.4929 117.013 78.594C118.722 84.9691 104.435 112.557 96.8213 122.393L97.0077 123.088C97.8618 126.276 99.8406 127.826 103.511 126.843C106.631 126.007 111.667 120.423 113.336 117.533L113.334 117.523ZM96.6178 120.822C103.727 112.156 116.953 84.7806 115.524 79.4487C115.319 78.6856 114.86 78.3634 114.03 78.586C106.959 80.4806 95.4959 108.057 96.6178 120.822Z" fill="white"/>
<path id="Vector_11" d="M126.702 113.941L127.602 114.518C126.362 117.076 120.622 123.666 116.401 124.797C114.875 125.206 112.848 124.558 112.328 122.617C111.251 118.599 115.911 113.271 118.548 112.564C119.514 112.306 120.009 112.763 120.177 113.391C120.623 115.052 117.279 118.919 114.062 121.862C114.377 123.041 115.15 123.724 116.889 123.258C120.009 122.422 125.046 116.838 126.714 113.948L126.702 113.941ZM113.957 120.7C117.029 118.024 118.933 115.432 118.636 114.322C118.561 114.041 118.312 113.963 117.974 114.054C115.829 114.628 114.021 118.157 113.967 120.697L113.957 120.7Z" fill="white"/>
<path id="Vector_12" d="M141.944 109.857L142.844 110.433C142.322 111.536 140.877 113.331 139.098 114.999C136.133 117.802 131.799 120.443 128.746 121.261C126.805 121.781 125.323 121.506 124.898 119.921C124.694 119.158 125.156 118.372 125.91 118.17C126.19 118.095 126.496 118.158 126.685 118.552C127.1 119.559 127.452 119.755 127.953 119.693C131.105 118.704 133.669 111.929 133.11 109.843C132.98 109.36 132.702 109.134 132.21 109.266C131.167 109.546 129.654 111.359 128.343 113.418L127.119 115.227C126.961 115.487 126.711 115.636 126.499 115.693C126.016 115.823 125.525 115.654 125.525 115.654C125.965 115.091 126.269 114.564 126.699 113.931C129.667 109.202 131.116 107.696 132.575 107.305C133.753 106.989 134.472 107.469 134.731 108.435C135.362 110.792 133.635 115.707 130.858 118.904C135.318 116.964 139.268 114.28 141.942 109.847L141.944 109.857Z" fill="white"/>
<path id="Vector_13" d="M141.139 115.197C140.396 112.425 143.736 103.289 147.295 94.395C142.631 95.5723 138.391 96.6358 135.764 97.3397C129.534 99.0091 124.355 100.469 121.438 101.251C120.472 101.51 119.056 101.516 118.908 100.966C118.925 100.216 120.248 99.8615 120.248 99.8615C122.257 99.3232 148.017 92.6485 148.017 92.6485C149.838 88.0818 151.606 83.5912 152.786 80.2312C153.42 78.4255 154.119 78.0208 154.467 77.9276C154.747 77.8525 155.152 77.9719 155.243 78.3099C155.333 78.648 155.262 79.195 155.093 79.6854C154.082 82.555 152.194 87.1398 150.171 92.0713C154.122 91.0128 169.121 87.1389 169.121 87.1389C169.816 86.9525 170.52 86.8364 170.649 87.3193C170.872 88.15 170.721 88.7081 169.127 89.1351C168.193 89.2406 158.488 91.5409 149.449 93.8179C145.707 102.844 141.795 112.35 142.315 114.292C142.574 115.258 143.072 115.725 143.835 115.52C147.225 114.612 152.603 109.454 154.282 106.561L155.182 107.138C153.942 109.696 148.277 115.448 144.047 116.582C142.733 116.934 141.542 116.663 141.151 115.204L141.139 115.197Z" fill="white"/>
<path id="Vector_14" d="M154.27 106.554C155.493 104.746 156.525 102.761 156.741 101.368C157.051 100.322 157.61 99.3543 158.404 98.9965C158.752 98.9033 158.924 99.0023 158.962 99.1472C159.092 99.6301 157.845 101.082 158.104 102.048C158.363 103.014 158.946 103.531 160.662 103.288C161.034 102.744 161.392 102.42 161.74 102.327C162.088 102.233 162.402 102.594 162.477 102.875C162.699 103.705 159.349 107.274 160.056 109.911C160.242 110.606 161.22 110.934 161.983 110.73C164.34 110.099 167.254 107.682 169.173 105.687C170.458 104.38 171.61 102.881 172.277 101.739L173.177 102.316C171.937 104.874 166.273 110.626 162.042 111.76C160.38 112.205 158.65 111.851 158.186 110.122C157.907 109.079 158.635 106.813 159.635 104.982C158.314 105.036 157.471 104.671 157.082 104.03C156.396 105.332 155.494 106.682 154.692 107.859C154.466 108.137 154.216 108.287 154.004 108.344C153.521 108.473 153.098 108.286 153.098 108.286C153.537 107.724 153.841 107.197 154.272 106.564L154.27 106.554Z" fill="white"/>
<path id="Vector_15" d="M184.63 98.5019L185.53 99.0787C184.29 101.637 178.625 107.389 174.395 108.522C172.869 108.931 172.095 108.248 171.78 107.07C170.982 104.095 173.211 98.0003 174.177 97.7415C174.389 97.6845 174.543 97.7159 174.735 97.8922C174.839 98.0093 174.963 98.2037 175 98.3389C175.186 99.0344 172.94 103.943 173.478 105.952C173.665 106.648 174.209 107.019 175.253 106.74C178.643 105.831 182.954 101.405 184.633 98.5116L184.63 98.5019ZM178.855 85.5658C179.203 85.4726 179.413 85.7165 179.506 86.0642C179.693 86.7597 179.128 88.2464 178.365 88.4509C178.017 88.5441 177.644 88.2714 177.551 87.9237C177.365 87.2282 178.015 85.791 178.845 85.5684L178.855 85.5658Z" fill="white"/>
<path id="Vector_16" d="M185.099 99.7117L183.505 100.139C183.945 99.5759 184.249 99.0493 184.679 98.4162C185.238 97.4486 186.989 94.8261 188.235 94.4922C188.718 94.3628 189.141 94.5498 189.381 95.4481C189.733 96.7617 187.869 102.013 188.242 103.404C188.278 103.539 188.385 103.666 188.529 103.627C193.206 100.293 197.922 93.2426 199.448 92.8336C199.796 92.7405 200.146 93.2367 200.221 93.5168C200.537 94.6952 197.527 97.8726 198.233 100.51C198.344 100.925 198.573 101.236 198.988 101.125C201.277 100.512 208.9 90.7462 209.527 90.578C209.875 90.4848 210.264 91.1259 210.337 91.3964C210.523 92.0918 209.015 95.3119 209.406 96.7704C209.686 97.8136 210.472 97.9653 211.573 97.6703C214.963 96.7618 220.482 91.2767 222.148 88.3766L223.048 88.9533C221.808 91.5115 215.502 97.6527 211.001 98.8588C209.34 99.304 207.993 98.9919 207.568 97.4077C207.346 96.5771 207.502 95.4998 207.646 94.6436C207.688 94.2596 200.781 101.98 198.839 102.501C197.593 102.834 196.88 101.835 196.657 101.004C196.212 99.3429 196.844 97.838 196.733 97.4226C196.715 97.355 196.629 97.3055 196.562 97.3237C194.588 99.1155 189.403 104.956 187.877 105.365C187.182 105.552 186.377 105.022 186.248 104.539C185.877 103.158 187.771 97.7432 187.512 96.7773C187.494 96.7097 187.408 96.6602 187.34 96.6783C187.128 96.7352 186.894 96.9429 186.59 97.4696C186.13 98.2657 185.592 99 185.111 99.7188L185.099 99.7117Z" fill="white"/>
</g>
</g>
</svg>
